<?xml version="1.0" encoding="UTF-8"?>
<!DOCTYPE svg PUBLIC "-//W3C//DTD SVG 1.1//EN" "http://www.w3.org/Graphics/SVG/1.1/DTD/svg11.dtd">
<!-- Creator: CorelDRAW 2021 (64-Bit) -->
<svg xmlns="http://www.w3.org/2000/svg" xml:space="preserve" width="78.0376mm" height="56.3315mm" version="1.1" style="shape-rendering:geometricPrecision; text-rendering:geometricPrecision; image-rendering:optimizeQuality; fill-rule:evenodd; clip-rule:evenodd"
viewBox="0 0 997.98 720.39"
 xmlns:xlink="http://www.w3.org/1999/xlink"
 xmlns:xodm="http://www.corel.com/coreldraw/odm/2003">
 <defs>
  <style type="text/css">
   <![CDATA[
    .str0 {stroke:#D4AF37;stroke-width:2.56;stroke-miterlimit:22.9256}
    .fil3 {fill:url(#id0)}
    .fil2 {fill:url(#id1)}
    .fil0 {fill:url(#id2)}
    .fil1 {fill:url(#id3)}
   ]]>
  </style>
  <linearGradient id="id0" gradientUnits="userSpaceOnUse" x1="-143.23" y1="16.77" x2="1163.88" y2="758.14">
   <stop offset="0" style="stop-opacity:1; stop-color:#FFFF66"/>
   <stop offset="1" style="stop-opacity:1; stop-color:#D4AF37"/>
  </linearGradient>
  <linearGradient id="id1" gradientUnits="userSpaceOnUse" xlink:href="#id0" x1="-143.24" y1="16.78" x2="1163.88" y2="758.13">
  </linearGradient>
  <linearGradient id="id2" gradientUnits="userSpaceOnUse" xlink:href="#id0" x1="-143.24" y1="16.78" x2="1163.88" y2="758.13">
  </linearGradient>
  <linearGradient id="id3" gradientUnits="userSpaceOnUse" xlink:href="#id0" x1="-143.24" y1="16.79" x2="1163.89" y2="758.13">
  </linearGradient>
 </defs>
 <g id="Layer_x0020_1">
  <metadata id="CorelCorpID_0Corel-Layer"/>
  <g id="_2406775986720">
   <path class="fil0 str0" d="M372.17 624.65c99.98,0 139,4.19 231.2,41.58 0.37,0.15 4.19,1.87 4.9,2.28 4.81,2.72 3.02,1.78 5.57,4 -7.89,1.84 -14.97,4.78 -22.01,6.7l-69.55 16.59c-23.5,4.42 -81.81,10.21 -107.04,10.21 -27.55,0 -208.1,-10.37 -157.85,-54.95 20.14,-17.86 86.26,-26.41 114.78,-26.41zm-251.65 -333.01l7.85 4.92c57.16,24.44 70.42,25.49 127.6,68.61 21.98,16.58 50,41.72 67.25,64.37 19.77,25.95 28.4,-2.91 36.95,-20.29 23,-46.72 44.33,-93.34 67.83,-140.35 6.31,-12.62 11.09,-22.54 17.52,-35.12l36.75 -68.54c4.4,-8.45 14.61,-26.89 16.72,-35.92 8.5,6.23 19.11,62.05 22.02,73.7l38.46 181.68c20.01,122.28 12.86,20.22 229.05,-87.87 26.5,-13.25 54.08,-28.98 83.75,-35.89 -18.04,34.1 -36.54,65.96 -54.24,101.3l-106.88 261.62c-2.48,7.73 -1.82,9.48 -7.9,13.64 -3.2,2.19 -53.65,23.06 -55.91,23.06 -7.08,0 -17.6,-5.91 -25.07,-8.43 -11,-3.71 -16,-5.59 -26.21,-9.69 -84.7,-34.05 -126.49,-39.31 -223.9,-39.31 -142.52,0 -197.03,80.32 -84.31,105.84 100.94,22.86 243.27,4.19 331.09,-26.62 18.71,-6.57 25.08,-1.13 43.27,4.01 16.48,4.66 30.34,7.85 48.33,11.5 15.81,3.2 37.05,6.25 51.99,7.83 9.36,0.99 18.87,-0.31 28.25,0.46 51.92,4.26 107.45,-1.63 158.28,-11.87 14.23,-2.87 25.35,-6.83 38.06,-9.8l0 -4.79c-19.42,0 -39.39,6.94 -57.84,9.16 -61.4,7.36 -129.2,6.71 -189.65,-3.35 -14.41,-2.4 -28.17,-4.56 -39.96,-7.9 -6.66,-1.89 -12.18,-3.37 -18.87,-5.06 -4.34,-1.1 -5.02,-1.13 -9.34,-2.62 -2.39,-0.82 -2.24,-0.67 -5.16,-2.02 -4.91,-2.27 -2.14,-0.85 -4.61,-2.57 14.95,-3.48 30.58,-11.93 43.61,-18.61 20.31,-10.41 26.17,-51.94 35.39,-72.29 26.3,-58.01 49.5,-121.27 82.33,-176.1l54.78 -95.97c32.33,-58.42 96.09,-114.85 -73.46,-54.31 -60.39,21.56 -129.24,62.33 -173.19,106.78l-46.04 47.28c0,-41.19 -51.93,-250.64 -66.38,-302.12 -2.67,-9.5 -4.41,-11.11 -10.19,-16.13 -9.62,2.24 -12.15,4.68 -16.72,11.99l-55.53 95.22c-4.39,7.21 -6.5,12.79 -10.74,20.37 -18.56,33.21 -36.1,65.56 -52.01,101.13 -8.37,18.72 -35.82,67.07 -37.29,84.74 -15.62,-10.46 -35.79,-47.09 -111.45,-91.95 -20.71,-12.28 -149.37,-66.74 -149.37,-32.48l65.4 118.84c7.41,14.83 12.81,27.03 19.93,42.28 13.09,28 24.66,58.98 35.23,89.2 4.44,12.71 22.69,84.61 32.57,91.85 15.72,-4.2 8.74,-24.36 5.44,-41.34 -8.93,-45.91 -20.99,-91.45 -36.27,-133.62 -4.99,-13.76 -10.07,-25.64 -16.23,-38.81 -6.74,-14.43 -10.56,-25.47 -18.56,-38.87 -7.35,-12.31 -13.12,-23.41 -20.5,-34.53 -3.86,-5.81 -7.28,-11.21 -11.62,-17.09l-10.34 -19.18z"/>
   <path class="fil1 str0" d="M941.67 205.9c0,49.02 55.04,37.7 55.04,9.57 0,-46.45 -55.04,-39.75 -55.04,-9.57z"/>
   <path class="fil2 str0" d="M1.28 232.22c0,43.11 55.04,45.57 55.04,2.39 0,-34.73 -55.04,-34.54 -55.04,-2.39z"/>
   <path class="fil3 str0" d="M489.42 24.04c0,51.7 55.04,35.98 55.04,9.57 0,-41.74 -55.04,-41.04 -55.04,-9.57z"/>
  </g>
 </g>
</svg>
